<svg width="100" height="100" viewBox="0 0 100 100" fill="none" xmlns="http://www.w3.org/2000/svg">
<path d="M32.3688 9.05078L34.3826 14.8871C34.6657 15.7076 35.0744 16.2482 35.6086 16.5088C36.1516 16.7664 36.7807 16.7724 37.4957 16.5268C38.2019 16.2843 38.6851 15.8963 38.9453 15.3629C39.2144 14.8264 39.2073 14.1479 38.9242 13.3274L36.9104 7.49103L38.1153 7.07722L40.1246 12.9003C40.3894 13.6679 40.4587 14.3694 40.3324 15.0049C40.2031 15.6316 39.9177 16.1638 39.4764 16.6015C39.0438 17.0363 38.501 17.3658 37.8478 17.5901C37.1945 17.8145 36.559 17.8897 35.941 17.8157C35.3319 17.7387 34.7831 17.493 34.2945 17.0785C33.8118 16.6522 33.4379 16.0553 33.1731 15.2877L31.1638 9.46459L32.3688 9.05078Z" fill="white"/>
<path d="M30.7534 20.8903L29.7506 21.676L20.9112 18.7306L25.717 24.8361L24.7142 25.6218L18.6701 17.9432L19.6729 17.1575L28.5036 20.0919L23.7064 13.9974L24.7093 13.2117L30.7534 20.8903Z" fill="white"/>
<path d="M13.1274 26.6623L15.8024 28.5292L17.8439 25.6177L18.705 26.2186L16.6634 29.1302L19.4187 31.0531L21.7014 27.7977L22.5625 28.3986L19.5483 32.6972L11.5349 27.1045L14.5491 22.806L15.4101 23.4069L13.1274 26.6623Z" fill="white"/>
<path d="M8.11786 34.1041L17.4384 36.7471L17.0893 37.9723L10.1393 36.0016L16.2071 41.0691L15.9616 41.9308L8.11201 43.0665L15.0755 45.0411L14.7264 46.2663L5.40587 43.6233L5.78179 42.3038L14.468 41.0416L7.74578 35.4102L8.11786 34.1041Z" fill="white"/>
<path d="M9.11473 68.4844L14.9074 66.3482C15.7218 66.0479 16.2531 65.6281 16.5012 65.089C16.7461 64.5411 16.7372 63.9127 16.4746 63.2038C16.2152 62.5036 15.8155 62.0293 15.2755 61.7808C14.7323 61.5235 14.0535 61.545 13.2391 61.8453L7.4464 63.9815L7.00378 62.7868L12.7833 60.6555C13.5452 60.3746 14.2455 60.2904 14.8845 60.403C15.5146 60.5187 16.0539 60.7924 16.5024 61.2238C16.9477 61.6466 17.2903 62.1817 17.5303 62.8294C17.7702 63.477 17.8605 64.1102 17.8011 64.729C17.7385 65.339 17.5056 65.8924 17.1024 66.3893C16.6872 66.8806 16.0987 67.2667 15.3369 67.5477L9.55735 69.679L9.11473 68.4844Z" fill="white"/>
<path d="M21.0153 69.8293L21.8256 70.8124L19.0779 79.6947L25.0848 74.7663L25.8952 75.7493L18.3405 81.9476L17.5301 80.9645L20.2671 72.0911L14.2709 77.0107L13.4606 76.0276L21.0153 69.8293Z" fill="white"/>
<path d="M27.2106 87.2763L29.0227 84.5639L26.0616 82.5949L26.6449 81.7218L29.606 83.6908L31.4726 80.897L28.1617 78.6954L28.745 77.8223L33.1167 80.7293L27.6882 88.8548L23.3165 85.9478L23.8998 85.0747L27.2106 87.2763Z" fill="white"/>
<path d="M34.8014 92.1035L37.2449 82.7287L38.4781 83.0486L36.6561 90.0391L41.5949 83.8572L42.4622 84.0822L43.767 91.8983L45.5926 84.8943L46.8258 85.2142L44.3823 94.589L43.0542 94.2445L41.6048 85.5954L36.1159 92.4445L34.8014 92.1035Z" fill="white"/>
<path d="M69.2063 90.3291L66.9313 84.5896C66.6114 83.7827 66.1788 83.2611 65.6333 83.0248C65.0792 82.7919 64.4505 82.8142 63.7472 83.0916C63.0527 83.3657 62.5874 83.775 62.3515 84.3195C62.1069 84.8676 62.1445 85.545 62.4643 86.3519L64.7394 92.0915L63.5543 92.559L61.2844 86.8325C60.9852 86.0777 60.8843 85.38 60.9819 84.7395C61.0828 84.1077 61.3439 83.5632 61.7651 83.1061C62.1776 82.6524 62.7051 82.2988 63.3475 82.0453C63.99 81.7918 64.6216 81.6881 65.2422 81.7342C65.8542 81.7838 66.4136 82.0045 66.9204 82.3966C67.4219 82.8007 67.8223 83.3802 68.1215 84.1351L70.3914 89.8616L69.2063 90.3291Z" fill="white"/>
<path d="M70.2854 78.4321L71.2519 77.6021L80.2151 80.1464L75.1391 74.2636L76.1055 73.4336L82.4895 80.8321L81.523 81.6621L72.5689 79.1284L77.6358 85.0006L76.6693 85.8306L70.2854 78.4321Z" fill="white"/>
<path d="M87.6344 71.873L84.8782 70.1284L82.9699 73.129L82.0827 72.5674L83.991 69.5668L81.1519 67.7698L79.0183 71.1248L78.1311 70.5632L80.9484 66.1332L89.2053 71.3596L86.388 75.7896L85.5008 75.2281L87.6344 71.873Z" fill="white"/>
<path d="M92.3016 64.2136L82.8717 61.9922L83.1651 60.7525L90.1966 62.4089L83.9067 57.619L84.1131 56.7471L91.9031 55.2597L84.8579 53.6001L85.1514 52.3603L94.5812 54.5817L94.2653 55.9169L85.6452 57.5683L92.6143 62.8921L92.3016 64.2136Z" fill="white"/>
<path d="M89.7538 29.9126L84.063 32.307C83.263 32.6436 82.7512 33.0868 82.5276 33.6366C82.3076 34.1949 82.3448 34.8222 82.6392 35.5186C82.9299 36.2063 83.3506 36.6622 83.9013 36.8861C84.4556 37.1187 85.1327 37.0667 85.9328 36.73L91.6236 34.3356L92.1196 35.5091L86.4418 37.8981C85.6933 38.213 84.9974 38.3286 84.354 38.2449C83.7193 38.1575 83.1681 37.9085 82.7006 37.4976C82.2367 37.0954 81.8703 36.5762 81.6014 35.94C81.3325 35.3039 81.2137 34.6754 81.2451 34.0546C81.2802 33.4424 81.4879 32.8791 81.8683 32.3647C82.2609 31.8552 82.8314 31.443 83.5799 31.1281L89.2578 28.7391L89.7538 29.9126Z" fill="white"/>
<path d="M77.8024 29.1042L76.9486 28.1586L79.2936 19.1618L73.5146 24.3556L72.6608 23.41L79.9288 16.878L80.7826 17.8235L78.448 26.811L84.2166 21.6266L85.0704 22.5721L77.8024 29.1042Z" fill="white"/>
<path d="M70.827 11.9532L69.139 14.7445L72.1857 16.5783L71.6424 17.4768L68.5957 15.643L66.857 18.5181L70.2635 20.5685L69.7202 21.467L65.2221 18.7596L70.2788 10.3977L74.7769 13.1051L74.2335 14.0036L70.827 11.9532Z" fill="white"/>
<path d="M63.0265 7.47149L61.0085 16.947L59.7622 16.6828L61.2669 9.61726L56.6122 16.0151L55.7357 15.8293L54.0796 8.07946L52.572 15.1587L51.3257 14.8945L53.3436 5.41902L54.6858 5.70352L56.5239 14.2791L61.698 7.18989L63.0265 7.47149Z" fill="white"/>
<g clip-path="url(#clip0_2051_3454)">
<mask id="mask0_2051_3454" style="mask-type:luminance" maskUnits="userSpaceOnUse" x="17" y="35" width="66" height="57">
<path d="M82.3301 35H17.6689V91.3802H82.3301V35Z" fill="white"/>
</mask>
<g mask="url(#mask0_2051_3454)">
<path d="M50 65H56V59H50V65Z" fill="#C01A20"/>
<path d="M56 35H38V58.9999L44 64.9999V40.9999H56V46.9999H50V52.9999H62V40.9999L56 35Z" fill="#C01A20"/>
</g>
</g>
<defs>
<clipPath id="clip0_2051_3454">
<rect width="24" height="30" fill="white" transform="translate(38 35)"/>
</clipPath>
</defs>
</svg>
